<?xml version="1.0" standalone="no"?>
<!DOCTYPE svg PUBLIC "-//W3C//DTD SVG 20010904//EN"
 "http://www.w3.org/TR/2001/REC-SVG-20010904/DTD/svg10.dtd">
<svg version="1.0" xmlns="http://www.w3.org/2000/svg"
 width="512.000000pt" height="512.000000pt" viewBox="0 0 512.000000 512.000000"
 preserveAspectRatio="xMidYMid meet">

<g transform="translate(0.000000,512.000000) scale(0.100000,-0.100000)"
fill="#000000" stroke="none">
<path d="M3561 4254 c-78 -21 -155 -65 -239 -137 -106 -90 -125 -135 -77 -182
43 -43 81 -35 181 41 112 84 154 105 224 111 48 5 67 1 119 -22 34 -16 73 -42
88 -59 23 -27 25 -37 21 -91 -6 -71 -35 -134 -87 -189 -20 -21 -112 -92 -206
-159 -204 -145 -262 -198 -304 -277 -75 -140 -83 -372 -14 -417 32 -21 114
-22 393 -4 189 12 211 11 277 -5 84 -21 113 -13 138 36 24 45 12 85 -34 116
-65 43 -137 49 -369 35 -114 -7 -222 -15 -241 -18 l-34 -6 7 54 c10 77 58 170
114 220 26 23 117 88 202 144 163 108 260 196 299 272 55 109 67 262 27 348
-72 154 -293 241 -485 189z"/>
<path d="M1191 3428 c-62 -32 -84 -66 -88 -135 -5 -78 17 -120 79 -151 50 -25
50 -25 1031 -48 l277 -6 -49 -57 c-126 -146 -279 -387 -406 -641 -68 -136
-421 -981 -525 -1256 -69 -184 -71 -241 -8 -301 59 -57 136 -69 198 -32 44 27
50 35 103 139 47 91 77 167 183 460 63 177 292 696 415 941 118 237 232 405
437 647 71 84 144 180 162 214 58 108 40 183 -49 208 -20 5 -164 10 -321 10
-157 0 -422 4 -590 10 -808 24 -800 24 -849 -2z"/>
</g>
</svg>
