<?xml version="1.0" standalone="no"?>
<!DOCTYPE svg PUBLIC "-//W3C//DTD SVG 20010904//EN"
 "http://www.w3.org/TR/2001/REC-SVG-20010904/DTD/svg10.dtd">
<svg version="1.0" xmlns="http://www.w3.org/2000/svg"
 width="512.000000pt" height="512.000000pt" viewBox="0 0 512.000000 512.000000"
 preserveAspectRatio="xMidYMid meet">

<g transform="translate(0.000000,512.000000) scale(0.100000,-0.100000)"
fill="#000000" stroke="none">
<path d="M3291 4244 c-78 -21 -155 -65 -239 -137 -106 -90 -125 -135 -77 -182
43 -43 81 -35 181 41 112 84 154 105 224 111 48 5 67 1 119 -22 34 -16 73 -42
88 -59 23 -27 25 -37 21 -91 -6 -71 -35 -134 -87 -189 -20 -21 -112 -92 -206
-159 -204 -145 -262 -198 -304 -277 -75 -140 -83 -372 -14 -417 32 -21 114
-22 393 -4 189 12 211 11 277 -5 84 -21 113 -13 138 36 24 45 12 85 -34 116
-65 43 -137 49 -369 35 -114 -7 -222 -15 -241 -18 l-34 -6 7 54 c10 77 58 170
114 220 26 23 117 88 202 144 163 108 260 196 299 272 55 109 67 262 27 348
-72 154 -293 241 -485 189z"/>
<path d="M2094 3499 c-70 -44 -466 -446 -551 -559 -183 -246 -288 -476 -350
-769 -25 -117 -27 -144 -27 -366 0 -266 13 -358 75 -529 68 -190 205 -350 361
-424 133 -64 198 -77 383 -76 189 1 267 18 411 89 184 90 334 271 402 485 38
119 46 182 46 345 0 132 -4 176 -22 250 -69 275 -252 460 -522 525 -47 11
-134 23 -195 26 -133 8 -224 -11 -397 -81 -62 -24 -113 -43 -114 -42 -1 1 16
45 37 97 77 188 110 231 390 510 275 275 319 329 319 394 0 78 -81 156 -163
156 -20 0 -53 -12 -83 -31z m101 -1372 c87 -24 143 -54 199 -107 99 -93 139
-239 119 -428 -35 -319 -205 -508 -475 -529 -152 -12 -272 31 -366 132 -116
123 -170 291 -179 550 -7 219 -8 217 108 287 104 62 180 95 255 108 66 12 277
4 339 -13z"/>
</g>
</svg>
